<svg width="40" height="43" viewBox="0 0 40 43" fill="none" xmlns="http://www.w3.org/2000/svg">
<path d="M37.5665 11.4702C37.3685 10.6223 36.9653 9.84537 36.3976 9.21796C35.8298 8.59054 35.1177 8.13484 34.3331 7.89688C31.4665 7.14648 19.9998 7.14648 19.9998 7.14648C19.9998 7.14648 8.53315 7.14648 5.66648 7.96835C4.88189 8.20631 4.16978 8.66201 3.60206 9.28942C3.03434 9.91684 2.63113 10.6937 2.43315 11.5417C1.9085 14.6604 1.65187 17.8242 1.66648 20.9931C1.64778 24.186 1.90443 27.3739 2.43315 30.5161C2.65141 31.3377 3.06366 32.085 3.63005 32.6859C4.19645 33.2869 4.89785 33.721 5.66648 33.9465C8.53315 34.7683 19.9998 34.7683 19.9998 34.7683C19.9998 34.7683 31.4665 34.7683 34.3331 33.9465C35.1177 33.7085 35.8298 33.2528 36.3976 32.6254C36.9653 31.998 37.3685 31.2211 37.5665 30.3731C38.0871 27.2779 38.3437 24.1383 38.3331 20.9931C38.3518 17.8003 38.0952 14.6124 37.5665 11.4702V11.4702Z" stroke="white" stroke-width="2" stroke-linecap="round" stroke-linejoin="round"/>
<path d="M16.25 26.8357L25.8333 20.9933L16.25 15.1509V26.8357Z" stroke="white" stroke-linecap="round" stroke-linejoin="round"/>
</svg>
